<?xml version="1.0" encoding="utf-8"?>
<!-- Generator: Adobe Illustrator 25.2.3, SVG Export Plug-In . SVG Version: 6.00 Build 0)  -->
<svg version="1.1" id="Layer_1" xmlns="http://www.w3.org/2000/svg" xmlns:xlink="http://www.w3.org/1999/xlink" x="0px" y="0px"
	 viewBox="0 0 226.8 113.4" style="enable-background:new 0 0 226.8 113.4;" xml:space="preserve">
<style type="text/css">
	.st0{fill:#00685E;}
	.st1{fill:#FFFFFF;}
</style>
<polygon class="st0" points="113.4,102.3 14.5,75.6 14.5,11 212.2,11.1 212.2,75.6 "/>
<g>
	<path class="st1" d="M76.6,51.6c-2.6,2.7-6.3,3.9-10,3.9c-7,0-12.5-4.3-12.5-9.9c0-5.6,5.5-9.9,12.5-9.9c3.7,0,7.4,1.2,10,3.9
		L73,41.8C71.5,40,69.3,39,66.6,39c-4.2,0-8,2.9-8,6.6c0,3.7,3.8,6.6,8,6.6c2.6,0,5-1,6.5-2.6L76.6,51.6z"/>
	<path class="st1" d="M85.6,48.4l3.4-6.8l3.4,6.8H85.6z M77.7,55.1h4.6l1.8-3.6H94l1.8,3.6h4.7l-9.9-19h-9.7v3.1h5.4L77.7,55.1z"/>
	<path class="st1" d="M107.4,43.4v11.6h-4.3V35.7l15.1,12V36.1h4.3v19.4L107.4,43.4z"/>
	<path class="st1" d="M132.3,43.4v11.6h-4.3V35.7l15.1,12V36.1h4.3v19.4L132.3,43.4z"/>
	<path class="st1" d="M158,48.4l3.4-6.8l3.4,6.8H158z M164.3,39.2h5.4v-3.1h-9.7l-9.9,19h4.7l1.8-3.6h9.9l1.8,3.6h4.6L164.3,39.2z"
		/>
	<rect x="54" y="59.4" class="st1" width="119" height="4"/>
	<path class="st1" d="M55.3,67.7h-1.5v-1h3.9v1h-1.5v4.8h-0.9V67.7z"/>
	<path class="st1" d="M58.2,66.6h0.8v1.9h0c0.2-0.4,0.7-0.7,1.2-0.7c0.8,0,1.5,0.8,1.5,1.9v2.7H61V70c0-0.8-0.4-1.1-0.9-1.1
		c-0.5,0-1,0.4-1,1.1v2.5h-0.8V66.6z"/>
	<path class="st1" d="M63.4,69.8c0.1-0.7,0.6-1,1.1-1c0.5,0,1,0.4,1.1,1H63.4z M63.9,67.5l1.6-0.5v-0.7l-1.6,0.5V67.5z M65.7,71
		c-0.3,0.4-0.7,0.7-1.1,0.7c-0.6,0-1.1-0.5-1.2-1.2h3.2v-0.2c0-1.8-1.2-2.5-2-2.5c-1.4,0-2.1,1.2-2.1,2.4c0,1.2,0.8,2.4,2.1,2.4
		c0.7,0,1.3-0.4,1.8-1.1L65.7,71z"/>
	<path class="st1" d="M69.5,71.1c0.3,0.4,0.8,0.7,1.2,0.7c0.5,0,0.8-0.3,0.8-0.6c0-0.3-0.2-0.5-0.5-0.5l-0.5-0.1
		c-1.1-0.2-1.4-0.6-1.4-1.3c0-0.8,0.6-1.5,1.5-1.5c0.5,0,1,0.2,1.5,0.6l-0.5,0.7c-0.4-0.4-0.8-0.5-1-0.5c-0.4,0-0.7,0.2-0.7,0.6
		c0,0.3,0.2,0.4,0.5,0.5l0.8,0.2c0.7,0.1,1,0.5,1,1.2c0,0.7-0.5,1.5-1.6,1.5c-0.7,0-1.2-0.3-1.7-0.8L69.5,71.1z"/>
	<path class="st1" d="M73.5,70.2c0-0.8,0.5-1.5,1.3-1.5c0.7,0,1.3,0.6,1.3,1.5c0,0.8-0.5,1.5-1.3,1.5C74,71.7,73.5,71,73.5,70.2z
		 M72.6,70.2c0,1.2,0.8,2.4,2.1,2.4c1.4,0,2.1-1.2,2.1-2.4c0-1.2-0.8-2.4-2.1-2.4C73.4,67.9,72.6,69,72.6,70.2z"/>
	<path class="st1" d="M78.4,66.6v4c0,0.5,0.1,0.7,0.3,0.9l0.4,0.3l-0.4,0.8c-0.9-0.5-1.3-0.8-1.3-1.8v-4.2H78.4z"/>
	<path class="st1" d="M79.5,68h0.8v2.5c0,0.7,0.4,1.1,0.9,1.1c0.5,0,0.9-0.5,0.9-1.1V68H83v2.6c0,1.3-0.9,2-1.8,2
		c-0.9,0-1.8-0.7-1.8-2V68z"/>
	<path class="st1" d="M83.6,68H84v-1.2l0.8-0.3V68h0.7v0.9h-0.7v1.8c0,0.5,0.1,0.7,0.3,0.9l0.4,0.3l-0.4,0.8
		c-0.9-0.5-1.3-0.8-1.3-1.8v-1.9h-0.5V68z"/>
	<path class="st1" d="M86.1,67.1c0,0.3,0.2,0.5,0.5,0.5c0.3,0,0.5-0.2,0.5-0.5c0-0.3-0.2-0.5-0.5-0.5C86.3,66.5,86.1,66.8,86.1,67.1
		z M86.2,72.5H87V68h-0.8V72.5z"/>
	<path class="st1" d="M88.5,70.2c0-0.8,0.5-1.5,1.3-1.5c0.7,0,1.3,0.6,1.3,1.5c0,0.8-0.5,1.5-1.3,1.5C89.1,71.7,88.5,71,88.5,70.2z
		 M87.6,70.2c0,1.2,0.8,2.4,2.1,2.4c1.4,0,2.1-1.2,2.1-2.4c0-1.2-0.8-2.4-2.1-2.4C88.4,67.9,87.6,69,87.6,70.2z"/>
	<path class="st1" d="M92.5,68h0.8v0.6h0c0.2-0.4,0.7-0.7,1.2-0.7c0.8,0,1.5,0.8,1.5,1.9v2.7h-0.8V70c0-0.8-0.4-1.1-0.9-1.1
		c-0.5,0-1,0.4-1,1.1v2.5h-0.8V68z"/>
	<path class="st1" d="M99.2,69.8h-0.5v-0.9h0.5v-0.8c0-0.8,0.4-1.6,1.4-1.6c0.2,0,0.5,0,0.6,0.1l-0.3,0.9c-0.1-0.1-0.2-0.1-0.4-0.1
		c-0.3,0-0.5,0.3-0.5,0.7v0.8h0.8v0.9h-0.8V74h-0.8V69.8z"/>
	<path class="st1" d="M102,70.2c0-0.8,0.5-1.5,1.3-1.5c0.7,0,1.3,0.6,1.3,1.5c0,0.8-0.5,1.5-1.3,1.5C102.5,71.7,102,71,102,70.2z
		 M101.1,70.2c0,1.2,0.8,2.4,2.1,2.4c1.4,0,2.1-1.2,2.1-2.4c0-1.2-0.8-2.4-2.1-2.4C101.9,67.9,101.1,69,101.1,70.2z"/>
	<path class="st1" d="M106,68h0.8v0.5h0c0.1-0.4,0.4-0.6,0.8-0.6c0.2,0,0.3,0.1,0.5,0.1l-0.3,1c-0.1-0.1-0.2-0.1-0.3-0.1
		c-0.3,0-0.6,0.3-0.6,0.7v3H106V68z"/>
	<path class="st1" d="M111,70.2c0-0.8,0.5-1.4,1.2-1.4c0.6,0,1.2,0.6,1.2,1.4c0,0.8-0.5,1.4-1.2,1.4C111.5,71.6,111,70.9,111,70.2z
		 M114.1,68h-0.8v0.5h0c-0.3-0.4-0.7-0.6-1.2-0.6c-1,0-2,0.8-2,2.3c0,1.4,0.9,2.3,1.9,2.3c0.6,0,1-0.2,1.3-0.7v0.3
		c0,0.7-0.4,1.3-1.3,1.3c-0.4,0-0.8-0.3-0.9-0.6l-0.7,0.6c0.4,0.6,1.1,0.9,1.6,0.9c1.1,0,2-0.9,2-2.3V68z"/>
	<path class="st1" d="M115,68h0.8v0.5h0c0.1-0.4,0.4-0.6,0.8-0.6c0.2,0,0.3,0.1,0.5,0.1l-0.3,1c-0.1-0.1-0.2-0.1-0.3-0.1
		c-0.3,0-0.6,0.3-0.6,0.7v3H115V68z"/>
	<path class="st1" d="M117.9,70.2c0-0.8,0.5-1.5,1.3-1.5c0.7,0,1.3,0.6,1.3,1.5c0,0.8-0.5,1.5-1.3,1.5
		C118.4,71.7,117.9,71,117.9,70.2z M117,70.2c0,1.2,0.8,2.4,2.1,2.4c1.4,0,2.1-1.2,2.1-2.4c0-1.2-0.8-2.4-2.1-2.4
		C117.8,67.9,117,69,117,70.2z"/>
	<path class="st1" d="M121.4,68h0.9l0.7,2.4h0l0.8-2.1l0.8,2.1h0l0.7-2.4h0.9l-1.5,4.6l-0.9-2.4h0l-0.9,2.4L121.4,68z"/>
	<path class="st1" d="M126.3,68h0.5v-1.2l0.8-0.3V68h0.7v0.9h-0.7v1.8c0,0.5,0.1,0.7,0.3,0.9l0.4,0.3l-0.4,0.8
		c-0.9-0.5-1.3-0.8-1.3-1.8v-1.9h-0.5V68z"/>
	<path class="st1" d="M128.9,66.6h0.8v1.9h0c0.2-0.4,0.7-0.7,1.2-0.7c0.8,0,1.5,0.8,1.5,1.9v2.7h-0.8V70c0-0.8-0.4-1.1-0.9-1.1
		c-0.5,0-1,0.4-1,1.1v2.5h-0.8V66.6z"/>
	<path class="st1" d="M135.9,70.2c0-0.8,0.6-1.5,1.2-1.5c0.7,0,1.2,0.6,1.2,1.5c0,0.8-0.6,1.5-1.2,1.5
		C136.5,71.7,135.9,71,135.9,70.2z M138.4,72.5h0.8V68h-0.8v0.5h0c-0.2-0.4-0.7-0.7-1.2-0.7c-1.3,0-2.1,1.3-2.1,2.4
		c0,1.2,0.7,2.4,2,2.4c0.5,0,1-0.3,1.3-0.7h0V72.5z"/>
	<path class="st1" d="M140.1,68h0.8v0.6h0c0.2-0.4,0.7-0.7,1.2-0.7c0.8,0,1.5,0.8,1.5,1.9v2.7h-0.8V70c0-0.8-0.4-1.1-0.9-1.1
		c-0.5,0-1,0.4-1,1.1v2.5h-0.8V68z"/>
	<path class="st1" d="M145.2,70.2c0-0.8,0.6-1.5,1.2-1.5c0.7,0,1.2,0.6,1.2,1.5c0,0.8-0.6,1.5-1.2,1.5
		C145.7,71.7,145.2,71,145.2,70.2z M147.6,72.5h0.8v-5.8h-0.8v1.9h0c-0.2-0.4-0.7-0.7-1.2-0.7c-1.3,0-2.1,1.3-2.1,2.4
		c0,1.2,0.7,2.4,2,2.4c0.5,0,1-0.3,1.3-0.7h0V72.5z"/>
	<path class="st1" d="M154.6,70.2c0,0.8-0.5,1.5-1.2,1.5c-0.7,0-1.2-0.6-1.2-1.5c0-0.8,0.5-1.5,1.2-1.5
		C154.1,68.8,154.6,69.4,154.6,70.2z M151.3,72.5h0.8v-0.5h0c0.2,0.4,0.7,0.7,1.3,0.7c1,0,2-0.9,2-2.4c0-1.5-1-2.4-2-2.4
		c-0.5,0-1.1,0.3-1.3,0.7h0v-1.9h-0.8V72.5z"/>
	<path class="st1" d="M156.9,66.6v4c0,0.5,0.1,0.7,0.3,0.9l0.4,0.3l-0.4,0.8c-0.9-0.5-1.3-0.8-1.3-1.8v-4.2H156.9z"/>
	<path class="st1" d="M158.6,70.2c0-0.8,0.5-1.5,1.3-1.5c0.7,0,1.3,0.6,1.3,1.5c0,0.8-0.5,1.5-1.3,1.5
		C159.2,71.7,158.6,71,158.6,70.2z M157.8,70.2c0,1.2,0.8,2.4,2.1,2.4c1.4,0,2.1-1.2,2.1-2.4c0-1.2-0.8-2.4-2.1-2.4
		C158.5,67.9,157.8,69,157.8,70.2z"/>
	<path class="st1" d="M163.3,70.2c0-0.8,0.5-1.5,1.3-1.5c0.7,0,1.3,0.6,1.3,1.5c0,0.8-0.5,1.5-1.3,1.5
		C163.8,71.7,163.3,71,163.3,70.2z M162.4,70.2c0,1.2,0.8,2.4,2.1,2.4c1.4,0,2.1-1.2,2.1-2.4c0-1.2-0.8-2.4-2.1-2.4
		C163.2,67.9,162.4,69,162.4,70.2z"/>
	<path class="st1" d="M167.3,69.7c0-1.1,0.7-1.8,1.4-1.8c0.6,0,1,0.3,1.2,0.8h0c0.2-0.5,0.6-0.8,1.2-0.8c0.8,0,1.4,0.7,1.4,1.8v2.8
		h-0.8v-2.8c0-0.5-0.3-0.8-0.6-0.8c-0.4,0-0.7,0.3-0.7,1v2.7h-0.8v-2.7c0-0.7-0.3-1-0.7-1c-0.3,0-0.6,0.3-0.6,0.8v2.8h-0.8V69.7z"/>
</g>
</svg>
